{
  "accessors": [
    {
      "bufferView": 0,
      "componentType": 5126,
      "count": 2845,
      "type": "VEC3",
      "max": [
        0.44575729966163635,
        0.29194444417953491,
        1.0416563749313354
      ],
      "min": [
        -0.44575729966163635,
        -0.32645696401596069,
        -0.00041401386260986328
      ]
    },
    {
      "bufferView": 1,
      "componentType": 5126,
      "count": 2845,
      "type": "VEC3",
      "max": [
        1.0,
        1.0,
        1.0
      ],
      "min": [
        -1.0,
        -0.99996781349182129,
        -1.0
      ]
    },
    {
      "bufferView": 2,
      "componentType": 5126,
      "count": 2845,
      "type": "VEC4",
      "max": [
        1.0,
        0.99999964237213135,
        0.99271589517593384,
        1.0
      ],
      "min": [
        -1.0,
        -0.99975341558456421,
        -0.99999725818634033,
        -1.0
      ]
    },
    {
      "bufferView": 3,
      "componentType": 5126,
      "count": 2845,
      "type": "VEC2",
      "max": [
        0.9940342903137207,
        0.99458277225494385
      ],
      "min": [
        0.015551583841443062,
        0.008005976676940918
      ]
    },
    {
      "bufferView": 4,
      "componentType": 5125,
      "count": 14628,
      "type": "SCALAR",
      "max": [
        2844.0
      ],
      "min": [
        0.0
      ]
    },
    {
      "bufferView": 5,
      "componentType": 5126,
      "count": 28,
      "type": "MAT4"
    },
    {
      "bufferView": 6,
      "componentType": 5123,
      "count": 2845,
      "type": "VEC4",
      "max": [
        27.0,
        27.0,
        27.0,
        0.0
      ],
      "min": [
        0.0,
        0.0,
        0.0,
        0.0
      ]
    },
    {
      "bufferView": 7,
      "componentType": 5126,
      "count": 2845,
      "type": "VEC4",
      "max": [
        1.0,
        0.5,
        0.3333333432674408,
        0.0
      ],
      "min": [
        0.3333333432674408,
        0.0,
        0.0,
        0.0
      ]
    }
  ],
  "asset": {
    "generator": "Plattar UnityGLTF (2019.4.0f1)",
    "version": "2.0"
  },
  "buffers": [
    {
      "uri": "Ara_idle.bin",
      "byteLength": 265144
    }
  ],
  "bufferViews": [
    {
      "buffer": 0,
      "byteLength": 34140
    },
    {
      "buffer": 0,
      "byteOffset": 34140,
      "byteLength": 34140
    },
    {
      "buffer": 0,
      "byteOffset": 68280,
      "byteLength": 45520
    },
    {
      "buffer": 0,
      "byteOffset": 113800,
      "byteLength": 22760
    },
    {
      "buffer": 0,
      "byteOffset": 136560,
      "byteLength": 58512
    },
    {
      "buffer": 0,
      "byteOffset": 195072,
      "byteLength": 1792
    },
    {
      "buffer": 0,
      "byteOffset": 196864,
      "byteLength": 22760
    },
    {
      "buffer": 0,
      "byteOffset": 219624,
      "byteLength": 45520
    }
  ],
  "images": [
    {
      "uri": "T_Ara_N.png",
      "name": "T_Ara_N"
    },
    {
      "uri": "T_Ara_D.png",
      "name": "T_Ara_D"
    }
  ],
  "materials": [
    {
      "pbrMetallicRoughness": {
        "baseColorTexture": {
          "index": 1
        },
        "metallicFactor": 0.0
      },
      "normalTexture": {
        "index": 0
      },
      "name": "ara"
    }
  ],
  "meshes": [
    {
      "primitives": [
        {
          "attributes": {
            "POSITION": 0,
            "NORMAL": 1,
            "TANGENT": 2,
            "TEXCOORD_0": 3,
            "JOINTS_0": 6,
            "WEIGHTS_0": 7
          },
          "indices": 4,
          "material": 0
        }
      ],
      "name": "M_Ara"
    }
  ],
  "nodes": [
    {
      "children": [
        1,
        42
      ],
      "rotation": [
        0.0,
        1.0,
        0.0,
        0.0
      ],
      "name": "Ara_idle"
    },
    {
      "children": [
        2,
        3
      ],
      "rotation": [
        -0.500000358,
        0.499999672,
        -0.499999672,
        -0.500000358
      ],
      "scale": [
        0.9999999,
        0.9999999,
        1.0
      ],
      "translation": [
        0.0,
        0.16,
        1.41498413E-08
      ],
      "name": "Bip001"
    },
    {
      "rotation": [
        0.0,
        0.0,
        0.7071063,
        -0.707107246
      ],
      "translation": [
        0.0,
        0.0,
        0.160219312
      ],
      "name": "Bip001 Footsteps"
    },
    {
      "children": [
        4
      ],
      "rotation": [
        -0.5,
        0.5,
        -0.499999344,
        -0.500000656
      ],
      "scale": [
        1.0,
        0.99999994,
        0.99999994
      ],
      "name": "Bip001 Pelvis"
    },
    {
      "children": [
        5,
        10,
        37
      ],
      "rotation": [
        -2.080476E-06,
        6.93676E-07,
        0.000398159,
        -0.99999994
      ],
      "scale": [
        1.0,
        0.99999994,
        0.99999994
      ],
      "translation": [
        -0.08220002,
        -0.0001619071,
        -1.142195E-07
      ],
      "name": "Bip001 Spine"
    },
    {
      "children": [
        6
      ],
      "rotation": [
        -0.0589051,
        0.9982636,
        -1.337112E-06,
        -5.44899521E-08
      ],
      "translation": [
        0.08219986,
        0.000227069264,
        -0.108932026
      ],
      "name": "Bip001 L Thigh"
    },
    {
      "children": [
        7
      ],
      "rotation": [
        5.924241E-14,
        9.196916E-15,
        -0.153404564,
        -0.9881635
      ],
      "scale": [
        1.00000012,
        1.00000012,
        0.99999994
      ],
      "translation": [
        -0.0509087145,
        -1.86264515E-09,
        7.450581E-09
      ],
      "name": "Bip001 L Calf"
    },
    {
      "children": [
        8
      ],
      "rotation": [
        4.73622E-08,
        2.05543472E-07,
        0.095326595,
        -0.9954461
      ],
      "scale": [
        0.99999994,
        0.99999994,
        1.0
      ],
      "translation": [
        -0.0509086959,
        0.0,
        -7.450581E-09
      ],
      "name": "Bip001 L Foot"
    },
    {
      "children": [
        9
      ],
      "rotation": [
        5.30342E-08,
        -1.3732776E-07,
        0.7071069,
        -0.7071067
      ],
      "scale": [
        1.0,
        0.99999994,
        0.99999994
      ],
      "translation": [
        -0.0596756749,
        0.0787680149,
        0.0
      ],
      "name": "Bip001 L Toe0"
    },
    {
      "rotation": [
        4.38587539E-17,
        -3.552714E-15,
        -1.0,
        -6.123234E-17
      ],
      "scale": [
        -1.0,
        -0.99999994,
        -0.99999994
      ],
      "translation": [
        -0.0490378365,
        -1.45519152E-11,
        -7.450581E-09
      ],
      "name": "Bip001 L Toe0Nub"
    },
    {
      "children": [
        11,
        17,
        27
      ],
      "rotation": [
        -3.01176727E-14,
        0.0,
        0.0,
        -1.0
      ],
      "translation": [
        -0.210582972,
        -3.478836E-05,
        9.64885949E-11
      ],
      "name": "Bip001 Neck"
    },
    {
      "children": [
        12,
        13,
        15
      ],
      "rotation": [
        -7.265599E-14,
        -1.10427334E-09,
        -0.000398830569,
        -0.99999994
      ],
      "translation": [
        -0.0534726679,
        -7.803406E-06,
        2.16063833E-11
      ],
      "name": "Bip001 Head"
    },
    {
      "rotation": [
        -4.11746566E-20,
        -3.38813179E-21,
        1.395049E-40,
        -1.0
      ],
      "scale": [
        1.0,
        0.99999994,
        0.99999994
      ],
      "translation": [
        -0.483133256,
        0.0,
        0.0
      ],
      "name": "Bip001 HeadNub"
    },
    {
      "children": [
        14
      ],
      "rotation": [
        0.000167967111,
        -0.4226183,
        0.000362635328,
        -0.9063077
      ],
      "scale": [
        1.0,
        0.99999994,
        1.0
      ],
      "translation": [
        -0.4277357,
        -0.00012894551,
        0.238716573
      ],
      "name": "Bip001 Xtra01"
    },
    {
      "rotation": [
        0.7073883,
        -0.7068252,
        9.809974E-07,
        9.802164E-07
      ],
      "scale": [
        1.0,
        1.00000012,
        1.0
      ],
      "translation": [
        -0.106755674,
        0.0,
        0.0
      ],
      "name": "Bip001 Xtra01Nub"
    },
    {
      "children": [
        16
      ],
      "rotation": [
        -0.000167967126,
        0.4226183,
        0.000360291015,
        -0.9063077
      ],
      "scale": [
        1.0,
        0.99999994,
        1.0
      ],
      "translation": [
        -0.4277357,
        -0.000130269691,
        -0.238716573
      ],
      "name": "Bip001 Xtra01Opp"
    },
    {
      "rotation": [
        0.7073883,
        -0.7068252,
        9.810187E-07,
        9.802378E-07
      ],
      "scale": [
        1.0,
        1.00000012,
        1.0
      ],
      "translation": [
        -0.106755674,
        0.0,
        0.0
      ],
      "name": "Bip001 Xtra01OppNub"
    },
    {
      "children": [
        18
      ],
      "rotation": [
        -0.690035045,
        -0.0002757587,
        -0.7237759,
        0.0002872313
      ],
      "translation": [
        0.012113601,
        0.008270709,
        -0.0854553953
      ],
      "name": "Bip001 L Clavicle"
    },
    {
      "children": [
        19
      ],
      "rotation": [
        0.181723446,
        -0.464593828,
        -0.0385648459,
        -0.8658186
      ],
      "translation": [
        -0.06941745,
        0.0,
        0.0
      ],
      "name": "Bip001 L UpperArm"
    },
    {
      "children": [
        20
      ],
      "rotation": [
        3.33317445E-08,
        -2.13818812E-08,
        -0.277891964,
        -0.960612357
      ],
      "scale": [
        0.99999994,
        0.99999994,
        1.0
      ],
      "translation": [
        -0.12233007,
        1.49011612E-08,
        0.0
      ],
      "name": "Bip001 L Forearm"
    },
    {
      "children": [
        21,
        24
      ],
      "rotation": [
        -0.766020834,
        -0.0285350624,
        0.0887655243,
        -0.6360177
      ],
      "translation": [
        -0.0651142448,
        0.0,
        0.0
      ],
      "name": "Bip001 L Hand"
    },
    {
      "children": [
        22
      ],
      "rotation": [
        0.693247,
        -0.4094305,
        0.06368916,
        -0.589677
      ],
      "translation": [
        -0.0353883058,
        -0.0004222095,
        0.03000364
      ],
      "name": "Bip001 L Finger0"
    },
    {
      "children": [
        23
      ],
      "rotation": [
        -1.09727392E-08,
        -2.08497113E-08,
        0.7216609,
        -0.692246735
      ],
      "scale": [
        1.00000012,
        1.00000012,
        1.0
      ],
      "translation": [
        -0.0248917341,
        0.0,
        -1.49011612E-08
      ],
      "name": "Bip001 L Finger01"
    },
    {
      "rotation": [
        7.450581E-09,
        2.23517418E-08,
        1.49011612E-08,
        -1.0
      ],
      "scale": [
        1.0,
        1.0,
        0.99999994
      ],
      "translation": [
        -0.0248917341,
        0.0,
        0.0
      ],
      "name": "Bip001 L Finger0Nub"
    },
    {
      "children": [
        25
      ],
      "rotation": [
        -0.00036148887,
        -0.000166866783,
        0.4191617,
        -0.907911539
      ],
      "scale": [
        1.00000012,
        1.0,
        1.00000012
      ],
      "translation": [
        -0.0528946519,
        0.0,
        3.7252903E-09
      ],
      "name": "Bip001 L Finger1"
    },
    {
      "children": [
        26
      ],
      "rotation": [
        1.97414654E-08,
        1.52385493E-09,
        0.598632,
        -0.801024258
      ],
      "scale": [
        1.0,
        0.99999994,
        1.0
      ],
      "translation": [
        -0.0311989486,
        0.0,
        -3.7252903E-09
      ],
      "name": "Bip001 L Finger11"
    },
    {
      "rotation": [
        0.0,
        -5.58793456E-09,
        0.0,
        -1.0
      ],
      "scale": [
        1.00000012,
        1.00000012,
        1.0
      ],
      "translation": [
        -0.0311989486,
        0.0,
        0.0
      ],
      "name": "Bip001 L Finger1Nub"
    },
    {
      "children": [
        28
      ],
      "rotation": [
        0.690035045,
        0.000273737678,
        -0.7237759,
        0.000289130956
      ],
      "translation": [
        0.012113601,
        0.008271184,
        0.0854553357
      ],
      "name": "Bip001 R Clavicle"
    },
    {
      "children": [
        29
      ],
      "rotation": [
        -0.181723461,
        0.464593828,
        -0.0385648534,
        -0.8658186
      ],
      "translation": [
        -0.06941745,
        0.0,
        0.0
      ],
      "name": "Bip001 R UpperArm"
    },
    {
      "children": [
        30
      ],
      "rotation": [
        -3.333174E-08,
        2.138188E-08,
        -0.2778919,
        -0.960612357
      ],
      "scale": [
        1.00000012,
        1.00000012,
        1.00000012
      ],
      "translation": [
        -0.12233007,
        1.49011612E-08,
        0.0
      ],
      "name": "Bip001 R Forearm"
    },
    {
      "children": [
        31,
        34
      ],
      "rotation": [
        0.766020834,
        0.0285350587,
        0.08876555,
        -0.6360177
      ],
      "scale": [
        1.0,
        1.0,
        1.00000012
      ],
      "translation": [
        -0.06511426,
        7.450581E-09,
        0.0
      ],
      "name": "Bip001 R Hand"
    },
    {
      "children": [
        32
      ],
      "rotation": [
        -0.693247,
        0.4094305,
        0.06368912,
        -0.589677
      ],
      "scale": [
        1.0,
        1.00000012,
        1.0
      ],
      "translation": [
        -0.0353883058,
        -0.0004221797,
        -0.03000364
      ],
      "name": "Bip001 R Finger0"
    },
    {
      "children": [
        33
      ],
      "rotation": [
        4.938485E-09,
        -1.59112261E-08,
        0.721661,
        -0.6922467
      ],
      "translation": [
        -0.0248917639,
        0.0,
        -1.49011612E-08
      ],
      "name": "Bip001 R Finger01"
    },
    {
      "rotation": [
        -7.450581E-09,
        -1.49011594E-08,
        -1.0,
        4.978995E-17
      ],
      "scale": [
        -1.0,
        -1.00000012,
        -1.00000012
      ],
      "translation": [
        -0.0248917341,
        0.0,
        0.0
      ],
      "name": "Bip001 R Finger0Nub"
    },
    {
      "children": [
        35
      ],
      "rotation": [
        0.000361518556,
        0.000166877653,
        0.419161767,
        -0.9079115
      ],
      "scale": [
        1.00000012,
        0.99999994,
        1.0
      ],
      "translation": [
        -0.0528946519,
        0.0,
        -3.7252903E-09
      ],
      "name": "Bip001 R Finger1"
    },
    {
      "children": [
        36
      ],
      "rotation": [
        -2.420162E-08,
        -7.491953E-09,
        0.598632,
        -0.801024258
      ],
      "scale": [
        1.0,
        0.99999994,
        1.0
      ],
      "translation": [
        -0.0311989188,
        0.0,
        7.450581E-09
      ],
      "name": "Bip001 R Finger11"
    },
    {
      "rotation": [
        -1.86264515E-09,
        7.450581E-09,
        -1.0,
        -7.511013E-17
      ],
      "scale": [
        -1.0,
        -1.0,
        -1.0
      ],
      "translation": [
        -0.0311989486,
        0.0,
        -3.7252903E-09
      ],
      "name": "Bip001 R Finger1Nub"
    },
    {
      "children": [
        38
      ],
      "rotation": [
        -0.05890563,
        0.998263538,
        -1.337112E-06,
        -5.448924E-08
      ],
      "translation": [
        0.08219986,
        0.000227673532,
        0.108932026
      ],
      "name": "Bip001 R Thigh"
    },
    {
      "children": [
        39
      ],
      "rotation": [
        4.57589119E-14,
        1.78895544E-14,
        -0.153405339,
        -0.988163352
      ],
      "scale": [
        1.00000012,
        1.00000012,
        1.0
      ],
      "translation": [
        -0.0509087071,
        -1.86264515E-09,
        7.450581E-09
      ],
      "name": "Bip001 R Calf"
    },
    {
      "children": [
        40
      ],
      "rotation": [
        4.209114E-08,
        1.31672863E-07,
        0.0953268,
        -0.995446
      ],
      "scale": [
        0.99999994,
        0.99999994,
        0.99999994
      ],
      "translation": [
        -0.0509087071,
        1.86264515E-09,
        -7.450581E-09
      ],
      "name": "Bip001 R Foot"
    },
    {
      "children": [
        41
      ],
      "rotation": [
        8.39428651E-08,
        -1.68236426E-07,
        0.7071069,
        -0.7071067
      ],
      "scale": [
        1.0,
        0.99999994,
        0.99999994
      ],
      "translation": [
        -0.0596756749,
        0.0787680149,
        0.0
      ],
      "name": "Bip001 R Toe0"
    },
    {
      "rotation": [
        0.0,
        4.92218942E-19,
        0.0,
        -1.0
      ],
      "scale": [
        1.0,
        0.99999994,
        0.99999994
      ],
      "translation": [
        -0.0490378365,
        0.0,
        -7.450581E-09
      ],
      "name": "Bip001 R Toe0Nub"
    },
    {
      "skin": 0,
      "mesh": 0,
      "rotation": [
        -0.7071068,
        0.0,
        0.0,
        -0.7071068
      ],
      "name": "M_Ara"
    }
  ],
  "samplers": [
    {
      "minFilter": 9729
    }
  ],
  "scene": 0,
  "scenes": [
    {
      "nodes": [
        0
      ],
      "name": "Ara_idle"
    }
  ],
  "skins": [
    {
      "inverseBindMatrices": 5,
      "joints": [
        4,
        3,
        5,
        11,
        10,
        21,
        24,
        20,
        18,
        15,
        19,
        25,
        7,
        6,
        8,
        22,
        34,
        35,
        30,
        28,
        13,
        31,
        32,
        29,
        37,
        39,
        38,
        40
      ]
    }
  ],
  "textures": [
    {
      "sampler": 0,
      "source": 0,
      "name": "T_Ara_N"
    },
    {
      "sampler": 0,
      "source": 1,
      "name": "T_Ara_D"
    }
  ]
}